<svg xmlns="http://www.w3.org/2000/svg" width="512" height="512">
    <path d="m119.02-.147 3.663-.011c3.344-.01 6.687-.014 10.03-.017 3.611-.004 7.222-.013 10.833-.022 8.717-.02 17.433-.03 26.15-.039l12.34-.015a57579.414 57579.414 0 0 1 51.713-.044l2.673-.002c14.264-.008 28.528-.033 42.792-.066 14.672-.033 29.345-.05 44.017-.054 8.227-.002 16.453-.01 24.68-.036 7.011-.022 14.023-.03 21.034-.02 3.57.004 7.138.002 10.707-.017 19.105-.1 37.85.509 55.66 8.177l2.479 1.032C449.659 13.814 460.22 20.554 470 29l2.293 1.89C494.137 49.389 509.221 78.5 512 107c.148 4.016.144 8.03.14 12.047l.01 3.672c.007 3.35.01 6.702.01 10.053.002 3.619.01 7.238.016 10.857.014 7.91.02 15.82.024 23.729.003 4.944.007 9.889.012 14.833a64001.274 64001.274 0 0 1 .026 43.774v2.663l.002 5.34v2.676c.005 14.293.022 28.586.046 42.879.023 14.694.036 29.39.037 44.084 0 8.243.007 16.485.025 24.727.015 7.022.02 14.043.012 21.065-.004 3.577-.003 7.153.011 10.73.142 38.14-9.49 69.84-36.371 97.871-11.592 11.543-25.824 20.186-40.875 26.437l-2.17.927c-17.809 6.952-36.386 7.226-55.236 7.144-3.61-.011-7.22.001-10.83.01-7.042.014-14.085.007-21.127-.009-8.223-.017-16.446-.013-24.669-.01-14.68.006-29.361-.008-44.042-.032-14.208-.024-28.416-.031-42.623-.021a27967.782 27967.782 0 0 1-51.538-.006l-2.472-.002c-5.716-.005-11.433-.003-17.15.001-6.973.005-13.947 0-20.92-.02-3.551-.01-7.102-.016-10.652-.008-38.061.076-69.727-9.59-97.696-36.411-11.543-11.592-20.186-25.824-26.438-40.875l-.926-2.17c-6.945-17.79-7.23-36.344-7.159-55.177.01-3.602-.005-7.204-.016-10.806-.017-7.028-.014-14.055-.002-21.083.009-5.72.01-11.439.006-17.158l-.002-2.48-.004-4.992c-.011-15.546.002-31.092.023-46.639.018-13.297.015-26.594-.003-39.89a21364.323 21364.323 0 0 1-.014-51.461l.002-2.47c.003-5.702-.003-11.405-.012-17.107-.011-6.964-.008-13.927.013-20.89.01-3.544.015-7.086.001-10.63-.054-19.04.576-37.735 8.218-55.485L8.72 74.21C13.812 62.345 20.547 51.77 29 42l2.008-2.445C52.58 14.16 86.06-.153 119.02-.147z" fill="#F5E27D"/>
    <path d="m179.813 108.563 2.242.04c7.416.235 14.584 1.403 21.829 2.948 2.094.444 4.194.852 6.296 1.258 15.067 3.065 28.828 9.023 41.82 17.191 5.977 3.598 11.068 4.274 18.004 4.504C301.446 135.938 334.193 148.308 358 169l2.516 2.148C370.889 180.217 379.097 190.113 386 202l1.075 1.851c10.113 17.82 14.102 36.567 14.113 56.899l.037 3.633c.017 10.719-1.153 20.833-4.85 30.93l-.782 2.16c-5.625 14.998-13.946 26.953-25.156 38.34l-1.606 1.635c-3.68 3.65-7.549 6.63-11.831 9.552l.813 2.07c1.127 2.9 2.236 5.805 3.34 8.713.59 1.543 1.186 3.083 1.788 4.621 6.942 17.764 11.216 35.471 13.872 54.346l.376 2.572c1.189 9.346.811 18.035.811 27.678H134c0-34.68 6.324-67.424 21-99a199.581 199.581 0 0 0-9.875-9.375c-1.71-1.54-3.418-3.082-5.125-4.625l-1.887-1.68c-17.39-16.295-26.558-41.513-27.336-64.879-.249-12.16.419-23.604 3.223-35.441l.809-3.59c6.367-25.159 23.44-48.312 44.191-63.597l2.04-1.538c3.217-2.394 6.28-4.463 9.898-6.2 3.33-1.822 3.33-1.822 4.265-5.345-.261-4.8-1.84-7.482-4.453-11.417l-1.238-1.971c-1.658-2.615-3.315-5.103-5.285-7.494-2.368-3.567-1.695-7.744-1.227-11.848 2.713-8.138 8.634-10.7 16.813-10.438z" fill="#ECEDED"/>
    <path d="m123.165 64.626 3.6-.012c3.27-.008 6.54-.003 9.81.008 3.538.01 7.075 0 10.612-.005 6.918-.01 13.836-.003 20.754.009 8.06.014 16.121.012 24.182.01 14.383-.003 28.765.008 43.148.028 13.95.019 27.9.026 41.849.02a39795.426 39795.426 0 0 1 50.472.01l2.418.001c5.616.004 11.232.004 16.849.002 6.843-.002 13.687.003 20.53.017 3.491.008 6.982.012 10.472.007 3.785-.003 7.57.006 11.355.018l3.337-.011c5.556.032 10.201.41 15.447 2.272l2.16.719c14.766 6.064 26.42 16.766 33.07 31.343 2.72 6.85 4.888 13.472 4.904 20.903l.014 2.97v3.24l.01 3.46a6108 6108 0 0 1 .019 11.505l.02 8.24c.02 8.248.03 16.497.039 24.746.004 3.889.01 7.778.015 11.666a51400.082 51400.082 0 0 1 .046 51.4c.008 13.495.033 26.99.066 40.486.033 13.87.05 27.74.054 41.61.002 7.781.01 15.563.036 23.345.022 6.63.03 13.26.02 19.89-.004 3.377 0 6.755.017 10.133.113 23.234-2.462 42.903-19.49 60.344-6.274 5.37-13.328 9.03-21 12l-2.473.973C396.6 448.939 387.284 448.26 378 448l-.104-2.31C376.23 411.108 369.684 379.865 356 348a196.2 196.2 0 0 1 9.812-9.313c1.73-1.56 3.46-3.123 5.188-4.687l2.11-1.867c15.988-14.901 25.867-38.956 27.08-60.516a372.4 372.4 0 0 0 .06-10.555l.023-3.552c-.024-11.1-1.246-21.807-4.898-32.323l-.784-2.287c-11.567-32.596-35.322-57.235-66.29-72.232-18.703-8.708-39.6-14.54-60.301-15.23-6.305-.262-10.587-1.247-16-4.438-14.881-8.724-29.06-14.56-46-18l-2.134-.458c-8-1.704-15.864-2.833-24.054-2.98l-2.105-.067c-5.01.022-7.85 1.38-11.707 4.505-1.552 2.124-1.552 2.124-2 5l-.46 2.016c-.996 8.123 3.537 13.418 8.077 19.664 4.4 6.11 4.4 6.11 4.332 10.836-1.179 4.328-2.309 5.03-6.137 7.234-26.78 16.47-47.012 41.106-54.738 71.945-6.608 29.505-4.34 61.118 12.092 87.152 7.757 11.338 17.73 21.12 28.834 29.153l-.813 2.07c-1.127 2.9-2.236 5.805-3.34 8.713a621.124 621.124 0 0 1-1.788 4.621c-8.982 22.983-13.665 46.289-15.184 70.908l-.262 4.014c-.21 3.224-.414 6.449-.613 9.674-26.098 1.037-26.098 1.037-37-5l-2.75-1.457c-15.473-8.726-23.751-21.666-28.795-38.507-1.628-6.047-1.878-11.697-1.843-17.932l-.016-3.476c-.014-3.817-.007-7.633 0-11.45-.004-2.747-.013-5.494-.02-8.242-.018-6.672-.019-13.344-.014-20.016.004-5.427.003-10.854-.002-16.282l-.003-2.346-.004-4.72a25855 25855 0 0 1 .003-44.206c.01-13.456-.003-26.912-.027-40.369-.024-13.843-.034-27.686-.027-41.529.003-7.761.001-15.523-.017-23.284-.014-6.608-.015-13.215.002-19.823.009-3.366.009-6.732-.004-10.098C63.403 116.286 65.33 97.767 81 81c12.18-11.383 25.624-16.486 42.165-16.374z" fill="#5FC395"/>
    <path d="M53 319c4.552 2.392 8.288 5.617 11 10 .365 2.91.365 2.91.353 6.335l.011 3.897-.014 2.08c-.014 2.168-.008 4.336.004 6.504.031 6.166.027 12.33.006 18.496-.436 29.155-.436 29.155 10.64 55.688l1.227 1.996C82.717 433.733 93.249 439.932 104 444l2.49 1.022c4.754 1.324 9.317 1.444 14.232 1.594l3.194.114c11.007.36 22.013.406 33.025.408 6.127.005 12.254.036 18.381.061 7.732.03 15.463.053 23.195.051 6.317 0 12.634.023 18.95.062 2.394.01 4.788.012 7.181.005 3.326-.01 6.65.011 9.976.04l2.976-.031c4.614.07 6.705.13 10.435 3.046 4.043 5.407 5.539 9.5 5.317 16.23-.7 4.77-3.345 7.444-6.727 10.648-6.416 4.277-12.744 4.037-20.191 4.009l-3.511.01c-3.829.01-7.657.003-11.486-.003l-8.012.005c-5.602.004-11.203 0-16.805-.01-6.443-.011-12.885-.008-19.328.003-5.555.01-11.11.01-16.666.006-3.307-.004-6.614-.003-9.92.003-29.283.04-56.11-2.781-78.706-23.273l-2.703-2.387c-15.576-14.553-26.908-36.172-27.66-57.661a515.23 515.23 0 0 1-.07-11.198l-.016-4.879c-.01-3.38-.007-6.761.003-10.142.012-4.323-.009-8.646-.038-12.969a1395.92 1395.92 0 0 1-.012-10.04c0-1.594-.006-3.188-.019-4.782-.015-2.226-.004-4.45.013-6.674v-3.825c.753-5.17 3.498-9.143 7.627-12.318 4.416-2.903 8.764-3.267 13.875-2.125z" fill="#EEC534"/>
    <path d="M333.5 220.5c7.814 4.495 12.82 10.276 15.84 18.797 2.137 8.75 1.097 16.885-3.34 24.703-4.804 7.31-12.083 12.554-20.637 14.645-8.535 1.283-16.524-.358-23.613-5.332-7.045-5.764-12.041-12.994-13.066-22.133-.36-9.069 1.743-16.236 7.316-23.43 10.045-10.47 24.265-13.272 37.5-7.25z" fill="#FCFCFD"/>
    <path d="M210 223c6.329 4.649 10.355 10.294 12 18 1.194 10.214.537 18.579-6 27-5.341 6.199-12.295 9.36-20.332 10.453-9.746.473-17.48-1.884-24.863-8.387-6.29-6.75-9.226-14.485-9.086-23.757 1.09-8.951 5.396-17.447 12.469-23.059 11.505-7.546 24.132-6.862 35.812-.25z" fill="#FDFDFD"/>
    <path d="M454.242 44.125c5.956 1.89 9.852 7.238 13.758 11.875l1.71 1.984c1.555 1.94 2.923 3.939 4.29 6.016l2.113 3.09C484.575 79.966 492.915 98.219 491 114c-1.796 2.934-2.944 4.472-6 6-1.988.273-1.988.273-4.313.375l-2.3.148c-3.744-.82-5.07-2.508-7.387-5.523-1.101-3.042-1.693-6.142-2.313-9.313-3.85-17.128-12.124-30.875-24.312-43.437-2.24-2.565-2.845-4.472-3.063-7.875.264-3.283.778-4.523 2.563-7.438 3.686-2.285 6.05-3.018 10.367-2.812z" fill="#FEFCE0"/>
    <path d="M197 230c5.796 2.465 10.162 6.323 13 12 .686 7.408.701 13.061-4 19-5.385 4.176-9.67 5.434-16.363 5.336-5.143-.655-8.801-3.044-12.02-7.063-3.18-5.403-3.545-11.149-2.617-17.273 4.357-8.875 12.268-13.566 22-12zM326.227 230.941c4.72 2.82 8.279 6.071 10.773 11.059.738 6.855.773 12.709-3.465 18.375-4.162 4.406-7.91 5.86-13.973 6.188-5.622-.232-9.427-1.75-13.562-5.563-4.217-5.166-4.63-9.59-4.383-16.195.727-5.329 3.583-8.208 7.445-11.618 5.081-3.783 11.227-4.756 17.165-2.246z" fill="#3D3D46"/>
    <path d="M417.125 22.953c3.852 1.403 7.004 3.305 8.875 7.047.42 3.059.49 5.948 0 9-2.438 3-2.438 3-5 5l-1 1c-5.973.288-11.362-.413-17.188-1.688l-2.365-.45c-5.132-1.11-8.189-2.49-11.447-6.862-1.265-4.761-.63-8.832 1.688-13.125 7.958-4.505 17.941-1.833 26.437.078z" fill="#FEFCDF"/>
    <path d="M168 266c2.225 1.56 4.108 3.294 6.066 5.176 2.464 2.324 5.068 4.033 7.934 5.824-.453 4.875-1.47 7.564-5 11-5.26 2.933-9.131 3.559-15 3-5.121-1.807-8.07-4.433-11-9-.897-2.923-1-5.095 0-8 4.813-5.65 9.435-8.976 17-8z" fill="#E9AFCE"/>
    <path d="M346.688 265.5c5.409.816 9.424 3.671 13.312 7.438 1.429 2.946 1.454 4.818 1 8.062-2.344 4.427-4.526 6.807-9 9-5.49.763-11.85 1.301-16.688-1.813-2.868-2.713-4.17-4.57-5.062-8.437.909-4.544 1.858-4.955 5.563-7.5l2.707-1.672c2.466-1.44 2.466-1.44 4.136-3.25C344 266 344 266 346.687 265.5z" fill="#EAAECD"/>
    <path d="M243.75 264.75c3.25.25 3.25.25 5.688 1.75 3.432 2.01 5.635 1.913 9.562 1.5a402.401 402.401 0 0 0 6-3c3.25-.375 3.25-.375 6 0 2 3 2 3 1.938 5.438-1.567 4.282-4.566 5.908-8.563 7.812-7.353 1.634-14.151 1.764-20.777-2.113-2.145-1.526-3.5-2.72-4.598-5.137.546-5.868.546-5.868 4.75-6.25z" fill="#404049"/>
</svg>